<svg xmlns="http://www.w3.org/2000/svg" class="social-icon--svg googleplus" viewBox="0 0 340 340">
    <path id="google"
          d="M84.184 122.74c0 15.98 5.372 27.54 15.912 34.34 8.636 5.576 18.632 6.392 23.868 6.392 1.292 0 2.244-.068 2.992-.068 0 0-1.632 10.745 6.324 21.42h-.34c-13.804 0-58.888 2.855-58.888 39.916 0 37.672 41.412 39.576 49.708 39.576h2.72c5.304 0 19.108-.68 31.892-6.868 16.592-8.024 25.024-22.032 25.024-41.616 0-18.904-12.853-30.19-22.168-38.42-5.712-5.032-10.676-9.316-10.676-13.532 0-4.284 3.604-7.48 8.16-11.628 7.412-6.596 14.35-15.98 14.35-33.796 0-15.64-2.042-26.112-14.485-32.776 1.292-.68 5.916-1.156 8.16-1.496 6.732-.952 16.66-1.972 16.66-7.48v-1.088H133.96c-.476.068-49.776 1.904-49.776 47.124zm79.56 96.56c.952 15.097-11.968 26.18-31.28 27.608-19.652 1.428-35.836-7.412-36.788-22.44-.476-7.208 2.72-14.348 8.976-19.99 6.324-5.714 14.96-9.25 24.412-9.93 1.088-.067 2.244-.136 3.332-.136 18.088 0 30.396 10.676 31.348 24.888zm-12.92-106.896c4.828 17-2.448 34.816-14.076 38.08-1.36.408-2.72.544-4.148.544-10.676 0-21.216-10.812-25.16-25.636-2.176-8.364-2.04-15.64.476-22.644 2.448-6.868 6.868-11.56 12.444-13.124 1.36-.408 2.72-.544 4.148-.544 12.92 0 21.216 5.304 26.316 23.324zm83.028 37.06V117.3H213.52v32.164h-32.164v20.332h32.164v32.164h20.332v-32.164h32.164v-20.332h-32.164z"
          class="st0"/>
</svg>
