<svg xmlns="http://www.w3.org/2000/svg" class="social-icon--svg pinterest" viewBox="0 0 340 340">
    <path id="pinterest"
          d="M155.176 204.61c-5.644 29.514-12.512 57.802-32.844 72.558-6.256-44.607 9.248-78.132 16.456-113.696-12.308-20.672 1.496-62.288 27.404-52.02 31.892 12.58-27.608 76.907 12.308 84.932 41.684 8.364 58.752-72.352 32.844-98.6-37.332-37.876-108.732-.884-99.96 53.38 2.108 13.26 15.844 17.272 5.508 35.632-23.936-5.304-31.076-24.14-30.124-49.3 1.496-41.14 36.992-69.972 72.556-73.916 45.016-5.032 87.312 16.524 93.092 58.888 6.596 47.804-20.332 99.552-68.477 95.88-13.06-1.088-18.57-7.548-28.77-13.737z"
          class="st0"/>
</svg>
