<svg xmlns="http://www.w3.org/2000/svg" fill-rule="evenodd" stroke-miterlimit="1.414" viewBox="0 0 341 341" clip-rule="evenodd" stroke-linejoin="round">
  <path class="hkweb--img-paraaf" d="M309.682 246.566c-7.46-6.898-15.05-13.656-22.45-20.617-6.17-5.81-12.177-11.79-18.18-17.78-2.34-2.34-2.218-4.69-.253-7.52 6.27-9.03 12.3-18.22 18.33-27.4.62-.95-1.99-3.23-2.89-2.47-1.76 1.49-21.95 30.14-31.45 42.15-31.16 41.79-57.81-21.59-46.68-69.26 6.27-17.39 33.77-91.54 16-92.24-1.84-.07-12.4 9.44-19.96 40.75-5.14 21.28-6.77 43.04-6.99 64.93-.03 3.04-1.04 6.31-2.2 9.02-10 23.31-35.82 42.89-35.9 42.292-2.13-15.82-5.11-34.435-6.31-50.328-1.74-23.08-3.86-46.64-5.45-69.738-1.98-28.88-9.35-37.657-13.16-1.737 4.662 5.416 6.042-16.905 7.26-12.617 5.03 44.525 4.53 88.663 11.092 134.99-5.593-2.737-9.633-5.04-13.91-6.745-14.51-5.78-69.71-19.618-91.79-4.89-9.825 6.542-14.918 15.52-14.44 26.89.45 10.675 8.55 16.92 17.876 20.51 12.82 4.94 26.14 4.8 39.4 2.39 18.6-3.38 35.25-11.87 51.774-20.584 3.647-1.92 9.32-5.23 12.976-7.13 1.135 4.533 1.52 8.21 2.267 12.18 1.85 9.83 7.61 3.843 7.36-1.415-.17-3.604-1.7-6.795-2.36-11.116-.536-3.5-.474-5.71 2.44-7.71 23.71-16.28 31.766-38.11 33.41-40.62.943 8.11 1.38 14.87 2.516 21.53 6.95 40.81 31.995 45.434 42.73 39.252 9.31-4.55 15.843-12.824 19.423-17.87 1.23-1.854 3.492-2.548 5.766-.298.36.35.646.604.884.792 39.25 40.583 43.94 33.364 42.852 32.357zm-165.61-28.962c-19.6 10.786-39.436 21.38-62.04 23.845-9.395 1.02-51.096-.74-42.885-25.37 6.865-20.6 34.545-18.05 48.58-17.24 33.526 1.95 55.14 14.41 59.846 16.73 0 0-2.913 1.7-3.5 2.02zm76.442-158.892c2.86-5.04 2.347 8.1 2.057 12.048-1.39 19.003-8.49 36.548-14.18 54.443-1.39 4.39-2.99 8.715-5.08 12.9 1-27.555 4.67-54.473 17.22-79.39z"/>
  <path class="hkweb--img-webdesign" fill-rule="nonzero" d="M91.723 260.705h3.456L100 275.57h.288l4.788-14.865h2.735l4.94 14.866h.29l4.58-14.86h3.35l-6.04 18h-4.35l-4.03-12.38h-.216l-4.067 12.39h-4.47l-6.046-18zm35.027 9.827c.252 3.96 3.348 5.76 6.84 5.76 2.52 0 4.354-.36 6.227-1.404l.972 2.735c-2.38 1.116-4.22 1.44-7.42 1.44-6.48 0-10.08-3.636-10.08-9.323 0-5.615 4.21-9.395 9.83-9.395 5.72 0 8.42 3.13 8.42 7.45 0 1.01-.07 1.8-.33 2.736h-14.47v.01zm11.555-2.592c-.036-3.527-1.69-4.896-5.543-4.896-2.916 0-5.795 1.62-6.083 4.896h11.62zm9.65-15.514v9.503c1.8-1.08 3.742-1.59 6.19-1.59 5.83 0 8.963 3.13 8.963 9.18 0 5.79-4.535 9.54-10.655 9.54-3.383 0-5.327-.54-7.847-1.91v-24.73h3.348zm0 22.857c1.655.756 2.59.973 4.534.973 4.39 0 7.23-2.34 7.23-6.768 0-4.283-1.8-6.443-5.87-6.443-2.31 0-4.21.504-5.91 1.692v10.546zm36.537-22.857v25.63c-2.916.755-5.04 1.007-9.035 1.007-5.723 0-9.467-3.204-9.467-9.432 0-5.61 3.96-9.28 9.503-9.28 2.484 0 4.03.33 5.65 1.37v-9.28h3.35zm-3.348 12.346c-1.476-1.115-3.24-1.728-5.363-1.728-3.6 0-6.4 2.16-6.4 6.552 0 4.607 2.88 6.767 6.81 6.767 1.98 0 3.31-.144 4.97-.576v-11.015zm10.586 5.76c.25 3.96 3.347 5.76 6.838 5.76 2.52 0 4.355-.36 6.228-1.404l.972 2.735c-2.376 1.116-4.212 1.44-7.415 1.44-6.48 0-10.08-3.636-10.08-9.323 0-5.615 4.213-9.395 9.828-9.395 5.73 0 8.43 3.13 8.43 7.45 0 1.01-.07 1.8-.32 2.736h-14.47v.01zm11.554-2.592c-.036-3.527-1.692-4.896-5.544-4.896-2.915 0-5.795 1.62-6.083 4.896h11.627zm19.296-3.888c-1.872-.863-3.49-1.115-5.436-1.115-3.132 0-4.5 1.008-4.5 2.375 0 1.764 1.656 2.232 4.788 2.556 4.5.468 7.09 1.98 7.09 5.688 0 3.743-3.31 5.508-8.565 5.508-2.628 0-4.464-.324-6.552-1.225l.828-2.74c1.836.86 3.6 1.26 5.58 1.26 3.707 0 5.58-.97 5.58-2.85 0-1.8-1.226-2.41-4.933-2.77-4.68-.47-6.983-1.95-6.983-5.19 0-2.88 2.483-5.22 7.703-5.22 2.592 0 4.212.25 6.443 1.11l-1.043 2.59zm9.83-8.854c0 1.188-.865 2.268-2.34 2.268-1.477 0-2.34-1.08-2.34-2.268 0-1.224.863-2.268 2.34-2.268 1.475 0 2.34 1.044 2.34 2.268zm-.685 5.507v17.998h-3.348v-17.998h3.348zm22.75 2.015h-3.996c1.4 1.116 1.97 2.27 1.97 3.996 0 3.6-2.92 6.335-8.03 6.335-1.84 0-3.49-.32-4.72-.93-.72.29-1.19 1.23-1.19 1.84 0 1.08.79 2.09 3.06 2.09h4.6c2.19 0 3.99.18 5.97.69 1.042 1.19 1.582 2.63 1.582 4.21 0 5.3-5.978 6.63-10.44 6.63-5.29 0-8.17-2.01-8.17-5.69 0-1.8.682-3.06 2.41-4.14-1.33-.65-2.053-2.05-2.053-3.35 0-1.47.794-3.02 2.234-3.81-.865-1.01-1.297-2.34-1.297-3.85 0-3.89 3.024-6.37 8.28-6.37h9.757v2.378zm-12.31 16.055c-.937 0-1.62-.036-2.305-.18-1.15.684-1.69 1.583-1.69 2.735 0 2.52 2.087 3.6 5.506 3.6 2.448 0 7.056-.685 7.056-3.888 0-.648-.18-1.368-.576-1.944-1.332-.287-2.34-.323-3.672-.323h-4.32zm2.267-8.28c2.88 0 4.93-1.223 4.93-3.778 0-2.628-2.158-3.888-4.93-3.888-3.024 0-4.932 1.4-4.932 3.88s1.8 3.78 4.932 3.78zm15.84-9.79l.217 2.844c1.72-2.27 4.17-3.21 6.73-3.21 4.96 0 7.45 2.81 7.45 7.88v10.48h-3.35v-10.51c0-3.14-1.05-5.11-4.11-5.11-2.81 0-4.86 1.08-6.52 3.2v12.42h-3.35v-18h2.91z"/>
</svg>
