<svg xmlns="http://www.w3.org/2000/svg" class="social-icon--svg behance" viewBox="0 0 340 340">
    <path id="behance"
          d="M149.328 162.52s20.264-1.564 20.264-26.384S153 99.28 131.988 99.28H62.832v138.516h69.156s42.228 1.36 42.228-40.868c0 0 1.836-34.408-24.888-34.408zm-56.032-38.624h38.692s9.384 0 9.384 14.416-5.508 16.524-11.832 16.524H93.228v-30.94h.068zm36.72 89.284h-36.72v-36.992h38.692s14.008-.203 14.008 19.04c0 16.184-10.472 17.816-15.98 17.952zm100.504-78.676c-51.136 0-51.067 53.244-51.067 53.244s-3.468 52.973 51.067 52.973c0 0 45.492 2.72 45.492-36.85H252.62s.748 14.89-21.284 14.89c0 0-23.393 1.64-23.393-24.07h68.885s7.548-60.18-46.308-60.18zm20.808 41.684h-43.656s2.855-21.352 23.393-21.352c20.535 0 20.263 21.352 20.263 21.352zm5.44-68.748H201.96v17.068h54.808V107.44z"
          class="st0"/>
</svg>
