<svg xmlns="http://www.w3.org/2000/svg" class="social-icon--svg github" viewBox="0 0 340 340">
    <g id="github">
        <path d="M78.978 196.2c-.84-.84-.84-1.682 0-2.523 1.683-1.683 3.787-2.313 6.31-1.893 2.525.42 3.998.84 4.418 1.262 2.945 1.263 6.206 4.103 9.782 8.52 3.576 4.418 6.416 7.468 8.52 9.15 10.097 8.415 20.405 9.046 30.923 1.895.85-2.94 2.21-5.47 4.11-7.57s3.68-3.57 5.37-4.42c1.69-.84 4.63-2.1 8.84-3.78-13.88-1.26-25.14-3.68-33.76-7.26s-15.46-8.1-20.51-13.57c-6.73-7.57-10.83-17.46-12.3-29.66-1.47-12.2-.52-23.35 2.84-33.45 2.53-6.31 6.1-11.99 10.73-17.04-3.36-10.51-2.73-22.5 1.89-35.97 13.47.84 25.67 5.47 36.61 13.89 21.04-5.47 42.91-5.68 65.63-.63 2.95-2.1 7.47-4.73 13.57-7.89 6.1-3.15 13.78-4.94 23.04-5.36 1.69 4.63 2.84 10.1 3.47 16.41.63 6.31.32 12.2-.94 17.67 9.68 10.1 14.73 23.56 15.15 40.39 0 13.46-2.31 24.61-6.94 33.45-4.63 8.84-12.83 16.2-24.61 22.09-7.99 3.79-18.51 6.1-31.55 6.94 5.89 2.95 10.2 6 12.94 9.16s4.53 8.1 5.37 14.83v19.88l.63 19.25c1.27 2.11 2.74 3.9 4.42 5.37s3.16 2.53 4.42 3.16c1.26.63 1.68 1.58 1.26 2.84-.42 1.27-2.1 1.9-5.05 1.9-7.15 0-12.83-2.52-17.04-7.57-1.26-2.1-1.89-4.62-1.89-7.57v-30.3c0-3.36-.84-5.78-2.522-7.26-1.68-1.47-3.36-2.42-5.047-2.84v39.76c0 7.15.84 11.78 2.52 13.89 1.68 2.11 2.734 4.21 3.155 6.31.42.42.1.74-.95.95s-2.84-.1-5.363-.94c-5.47-1.26-9.255-4.1-11.36-8.52-2.105-4.41-3.16-9.15-3.16-14.2V215.8H173.7v39.13c0 5.05-1.053 9.89-3.156 14.517-2.95 5.89-8.42 9.046-16.41 9.467-1.26-.42-1.89-.84-1.89-1.265.42-.42 1.68-2.52 3.78-6.31.42-.84.945-2.52 1.577-5.05.634-2.52.95-5.47.95-8.83V217.7c-1.68.42-3.26 1.364-4.73 2.84-1.48 1.47-2.21 3.89-2.21 7.255v30.295c0 2.946-.63 5.47-1.9 7.574-3.79 5.05-9.47 7.575-17.04 7.575-2.946 0-4.63-.63-5.05-1.9-.42-.85-.32-1.58.314-2.21.63-.63 1.58-1.37 2.84-2.21 1.267-.84 2.11-1.47 2.53-1.9 1.68-1.27 2.95-2.95 3.79-5.05 1.266-1.69 1.58-6.1.95-13.25-.63-7.16-.73-11.78-.31-13.89-10.94 3.79-22.09 1.89-33.45-5.68-3.37-3.37-6.73-8.21-10.1-14.52-2.53-4.63-7.58-10.1-15.15-16.41z"
              class="st0"/>
    </g>
</svg>
