<svg xmlns="http://www.w3.org/2000/svg" class="social-icon--svg linkedin" viewBox="0 0 340 340">
    <path id="linkedin"
          d="M109.48 95.132c0 11.424-8.432 20.604-22.236 20.604-12.988 0-21.42-9.248-21.42-20.604 0-11.696 8.704-20.604 21.964-20.604 13.328 0 21.42 8.976 21.692 20.604zM66.912 264.725v-132.67h41.208v132.67H66.912zm65.892-90.373c0-16.523-.544-30.396-1.088-42.295h35.836l1.904 18.428h.816c5.44-8.704 18.7-21.42 41.003-21.42 27.133 0 47.465 18.156 47.465 57.256v78.41h-41.276v-73.51c0-17.06-5.983-28.76-20.876-28.76-11.424 0-18.156 7.89-21.148 15.44-1.088 2.72-1.36 6.53-1.36 10.34v76.5h-41.275v-90.38z"
          class="st0"/>
</svg>
