<svg xmlns="http://www.w3.org/2000/svg" class="social-icon--svg slideshare"  viewBox="0 0 340 340">
    <g id="slideshare">
        <path d="M170.952 164.084c.204-.68.407-.952.407-1.292.47-7.616 1.49-9.724 9.04-11.356 8.29-1.768 16.86-2.924 25.36-3.196 15.37-.476 30.73.34 46.03-.34 7-.34 14.07-2.38 20.67-4.76 10.74-3.808 21.35-8.024 31.62-12.988 5.98-2.924 11.08-7.616 16.59-11.56 2.04-1.428 3.87-3.196 6.12-4.284 4.76-2.312 7.89-.272 7.55 4.964-.21 2.924-1.02 5.848-1.98 8.636-5.1 13.804-14.62 24.004-27.2 31.008-11.97 6.596-24.28 12.512-36.59 18.496-2.72 1.36-3.74 2.788-3.68 5.916.2 15.572.06 31.212.13 46.783 0 19.45-14.28 41.89-31.01 48.69-16.12 6.53-42.5 1.16-54.67-11.22-5.24-5.3-8.09-11.42-7.89-19.17.34-13.67 0-27.4.13-41.07 0-2.38-.48-3.67-2.99-4.21-2.32-.47-4.42-1.56-7.08-2.51-.07 1.23-.21 2.38-.21 3.47 0 15.1-.066 30.26.07 45.36.07 5.65-1.97 10.27-6.12 13.88-10.947 9.52-23.39 12.51-37.127 7.07-13.19-5.17-24.346-13.33-33.458-24.27-4.49-5.37-6.87-11.42-6.73-18.63.27-16.18 0-32.36.133-48.55 0-2.99-1.15-4.21-3.67-5.44-14.35-6.87-28.76-13.6-42.84-21.01-10.88-5.71-17.75-15.71-24.14-25.7-1.43-2.17-1.7-5.44-1.7-8.16.07-3.46 1.77-4.48 5.03-3.26 3.676 1.43 7.21 3.06 10.61 5.03 7.346 4.15 14.69 8.36 21.83 12.85 14.08 8.84 29.786 12.51 46.04 13.74 17.2 1.29 34.4 2.17 51.61 2.85 9.93.34 18.22 4.01 25.57 10.27 1.36 1.3 2.85 2.59 4.49 4.02z"
              class="st0"/>
        <path d="M160.548 94.996c-.34 20.4-17 36.652-37.264 36.244-19.652-.408-35.836-17.272-35.496-36.924.34-20.332 16.728-36.176 37.06-35.904 19.788.204 36.04 16.864 35.7 36.584zm95.812-.204c.136 19.652-16.388 36.38-35.972 36.448-20.197.068-36.72-16.252-36.79-36.38-.066-20.06 16.186-36.448 36.177-36.516 20.265 0 36.45 16.048 36.584 36.448z"
              class="st0"/>
    </g>
</svg>
