<svg xmlns="http://www.w3.org/2000/svg" class="social-icon--svg twitter" viewBox="0 0 340 340">
    <path id="twitter"
          d="M268.6 108.868c-7.275 3.196-15.027 5.372-23.256 6.392 8.364-5.032 14.756-12.92 17.816-22.372-7.82 4.624-16.456 8.024-25.704 9.792-7.412-7.888-17.884-12.784-29.513-12.784-22.37 0-40.46 18.088-40.46 40.46 0 3.196.34 6.256 1.02 9.248-33.59-1.7-63.443-17.816-83.367-42.296-3.468 5.984-5.508 12.92-5.508 20.332 0 14.008 7.14 26.384 18.02 33.66-6.596-.204-12.852-2.04-18.292-5.032v.476c0 19.584 13.94 35.972 32.436 39.645-3.4.95-6.936 1.42-10.676 1.42-2.584 0-5.168-.27-7.616-.75 5.168 16.04 20.128 27.74 37.808 28.08-13.872 10.88-31.28 17.34-50.252 17.34-3.264 0-6.46-.21-9.656-.55 17.884 11.49 39.168 18.15 62.016 18.15 74.393 0 115.124-61.68 115.124-115.12 0-1.77-.067-3.47-.136-5.24 7.888-5.65 14.756-12.79 20.196-20.88z"
          class="st0"/>
</svg>
